<svg xmlns="http://www.w3.org/2000/svg" data-name="Layer 1" viewBox="0 0 512 512"><polyline fill="#24b378" points="282 459.532 422.94 459.532 422.94 504.5 504.5 422.94 422.94 341.379 422.94 386.348 282 386.348"/><polygon fill="#19ac66" points="422.94 341.379 422.94 371.379 474.5 422.94 422.94 474.5 422.94 504.5 504.5 422.94 422.94 341.379"/><polyline fill="#24b378" points="231 125.652 89.06 125.652 89.06 170.621 7.5 89.06 89.06 7.5 89.06 52.468 231 52.468"/><circle cx="256" cy="256" r="155" fill="#fff"/><path fill="#eaeaea" d="M256,101a156.24149,156.24149,0,0,0-22.5,1.63135,155.012,155.012,0,0,1,0,306.7373A155.00482,155.00482,0,1,0,256,101Z"/><path fill="#24b378" d="M338.56631,259.43323l-81.327,77.88431a4.75367,4.75367,0,0,1-8.04157-3.43324V178.1157a4.75367,4.75367,0,0,1,8.04157-3.43324l81.327,77.88431A4.75365,4.75365,0,0,1,338.56631,259.43323Z"/><path fill="#19ac66" d="M338.56641,252.56677l-81.32715-77.88434a4.75365,4.75365,0,0,0-8.04151,3.43329v3.23059l74.36866,71.22046a4.7537,4.7537,0,0,1,0,6.86646l-74.36866,71.22046v3.23059a4.75365,4.75365,0,0,0,8.04151,3.43329l81.32715-77.88434A4.7537,4.7537,0,0,0,338.56641,252.56677Z"/><path fill="#f9a242" d="M291.33653,259.43323l-81.327,77.88431a4.75367,4.75367,0,0,1-8.04157-3.43324V178.1157a4.75367,4.75367,0,0,1,8.04157-3.43324l81.327,77.88431A4.75366,4.75366,0,0,1,291.33653,259.43323Z"/><path fill="#f69531" d="M291.33643,252.56677l-81.32691-77.88434a4.7538,4.7538,0,0,0-8.04175,3.43329v3.23059l74.36866,71.22046a4.75327,4.75327,0,0,1,0,6.86646l-74.36866,71.22046v3.23059a4.7538,4.7538,0,0,0,8.04175,3.43329l81.32691-77.88434A4.75327,4.75327,0,0,0,291.33643,252.56677Z"/><path fill="#3c3b41" d="M262.42578,169.26142a12.2554,12.2554,0,0,0-20.72558,8.85889v16.52661l-26.50293-25.3811a12.25414,12.25414,0,0,0-20.7295,8.85009V333.88447a12.25179,12.25179,0,0,0,20.7295,8.84961l26.50293-25.38086v16.52685a12.25258,12.25258,0,0,0,20.72754,8.85645l81.335-77.894a12.25521,12.25521,0,0,0-.00489-17.689Zm-52.958,158.19043V184.54853l74.61036,71.45166Zm47.23243.00049V302.988l39.82422-38.13818a12.253,12.253,0,0,0,0-17.69922L256.7002,209.01191V184.548l74.6084,71.45215Zm253.10351,90.18457-81.55957-81.56006a7.50013,7.50013,0,0,0-12.80371,5.30322v37.47022H362.25684A162.1833,162.1833,0,0,0,418.5,256.00019c0-89.60254-72.89746-162.5-162.5-162.5a161.51818,161.51818,0,0,0-85.94409,24.6499H89.05957a7.49974,7.49974,0,0,0-7.5,7.5v26.86377L18.10645,89.06025,81.55957,25.60664V52.47041a7.49974,7.49974,0,0,0,7.5,7.5H223.88965a7.5,7.5,0,0,0,0-15H96.55957V7.50019A7.50013,7.50013,0,0,0,83.75586,2.197L2.19629,83.757a7.50021,7.50021,0,0,0,0,10.60644l81.55957,81.56006a7.50013,7.50013,0,0,0,12.80371-5.30322V133.15009h53.18372A162.183,162.183,0,0,0,93.5,256.00019c0,89.60254,72.89746,162.5,162.5,162.5a161.5181,161.5181,0,0,0,85.94409-24.6499h80.99634a7.49974,7.49974,0,0,0,7.5-7.5V359.48652l63.45313,63.45361-63.45313,63.45362V459.53a7.49974,7.49974,0,0,0-7.5-7.5H288.11035a7.5,7.5,0,1,0,0,15H415.44043v37.47021a7.50023,7.50023,0,0,0,12.80371,5.30322l81.55957-81.56006A7.50021,7.50021,0,0,0,509.80371,417.63691ZM256,403.50019c-81.332,0-147.5-66.16846-147.5-147.5s66.168-147.5,147.5-147.5,147.5,66.16846,147.5,147.5S337.332,403.50019,256,403.50019Z"/></svg>